<svg xmlns="http://www.w3.org/2000/svg" width="81" height="81" viewBox="0 0 81 81">
  <g>
    <path d="M61.3333333,73.3333333 L7.66666667,73.3333333 L7.66666667,19.6666667 L42.1666667,19.6666667 L42.1666667,12 L7.66666667,12 C3.45,12 0,15.45 0,19.6666667 L0,73.3333333 C0,77.55 3.45,81 7.66666667,81 L61.3333333,81 C65.55,81 69,77.55 69,73.3333333 L69,38.8333333 L61.3333333,38.8333333 L61.3333333,73.3333333 Z"/>
    <polygon points="31.984 60.529 24.5 51.51 14 65 56 65 42.484 47"/>
    <path d="M69.375,11.6330785 L69.375,0 L61.625,0 L61.625,11.6330785 L50,11.6330785 C50.03875,11.6718555 50,19.3884642 50,19.3884642 L61.625,19.3884642 L61.625,30.9827658 C61.66375,31.0215427 69.375,30.9827658 69.375,30.9827658 L69.375,19.3884642 L81,19.3884642 L81,11.6330785 L69.375,11.6330785 Z"/>
  </g>
</svg>
