<svg xmlns="http://www.w3.org/2000/svg" width="100" height="83" viewBox="0 0 100 83">
  <g>
    <path d="M98.4156157,0 L1.58438431,0 C0.709487293,0 0,0.746245752 0,1.66721571 L0,81.3327843 C0,82.2537542 0.709487293,83 1.58438431,83 L98.4156157,83 C99.2911465,83 100,82.2537542 100,81.3327843 L100,1.66721571 C100,0.746245752 99.2911465,0 98.4156157,0 Z M90.4936942,69.707956 L68.7033399,45.9621361 C68.4625135,45.7003833 68.0686355,45.6833777 67.8087965,45.9241236 L52.6953546,59.9217333 L33.3779073,34.8931576 C33.2524241,34.7297704 33.0689524,34.6364064 32.8613981,34.6410746 C32.6614488,34.6454093 32.4748083,34.7464426 32.3553457,34.9151648 L9.50630585,67.177456 L9.50630585,10.0032943 L90.4936942,10.0032943 L90.4936942,69.707956 Z"/>
    <path d="M66.6665099,34.8064516 C70.9121205,34.8064516 74.3589744,31.2107294 74.3589744,26.774521 C74.3589744,22.3396222 70.9121205,18.7419355 66.6665099,18.7419355 C62.4174495,18.7419355 58.974359,22.3396222 58.974359,26.774521 C58.974359,31.210402 62.4177631,34.8064516 66.6665099,34.8064516 Z"/>
  </g>
</svg>
