<svg xmlns="http://www.w3.org/2000/svg" width="100" height="100" viewBox="0 0 100 100">
  <path d="M0,55.5555556 L44.4444444,55.5555556 L44.4444444,0 L0,0 L0,55.5555556 Z M0,72.5555556 L44.4444444,72.5555556 L44.4444444,67 L0,67 L0,72.5555556 Z M0,86.5555556 L44.4444444,86.5555556 L44.4444444,81 L0,81 L0,86.5555556 Z M0,99.5555556 L44.4444444,99.5555556 L44.4444444,94 L0,94 L0,99.5555556 Z M55.5555556,100 L100,100 L100,44.4444444 L55.5555556,44.4444444 L55.5555556,100 Z M55.5555556,0 L55.5555556,33.3333333 L100,33.3333333 L100,0 L55.5555556,0 Z"/>
</svg>
